<svg version="1.1" xmlns="http://www.w3.org/2000/svg" viewBox="0 0 776.3821648491753 975.6666666666666" width="776.3821648491753" height="975.6666666666666">
  <!-- svg-source:excalidraw -->
  
  <defs>
    <style class="style-fonts">
      @font-face {
        font-family: "Virgil";
        src: url("https://excalidraw.com/Virgil.woff2");
      }
      @font-face {
        font-family: "Cascadia";
        src: url("https://excalidraw.com/Cascadia.woff2");
      }
    </style>
    
  </defs>
  <rect x="0" y="0" width="776.3821648491753" height="975.6666666666666" fill="#ffffff"></rect><g stroke-linecap="round" transform="translate(203.4377204047309 601.0555555555554) rotate(0 103.5 40.5)"><path d="M20.25 0 M20.25 0 C56.03 -2.4, 91.6 0.36, 186.75 0 M20.25 0 C66.61 0.66, 115.48 0.44, 186.75 0 M186.75 0 C200.39 1.87, 206.22 5.66, 207 20.25 M186.75 0 C200 -1.33, 208.77 7.42, 207 20.25 M207 20.25 C205.92 33.43, 205.21 47.92, 207 60.75 M207 20.25 C207.75 34.22, 206.99 49.36, 207 60.75 M207 60.75 C205.78 73.36, 199.53 80.68, 186.75 81 M207 60.75 C208.64 72.74, 199.47 78.74, 186.75 81 M186.75 81 C148.31 81, 112.69 81.97, 20.25 81 M186.75 81 C138.41 81.4, 89.79 81.17, 20.25 81 M20.25 81 C4.85 81.93, 1.94 73.76, 0 60.75 M20.25 81 C7.59 78.78, -1.5 76.25, 0 60.75 M0 60.75 C-1.91 52.12, 1.38 39.72, 0 20.25 M0 60.75 C-0.34 50.87, 0.66 39.4, 0 20.25 M0 20.25 C0.26 8.22, 6.82 0.22, 20.25 0 M0 20.25 C-1.72 8.16, 8.7 1.26, 20.25 0" stroke="#1e1e1e" stroke-width="1" fill="none"></path></g><g transform="translate(235.9178000556098 629.0555555555554) rotate(0 71.0199203491211 12.5)"><text x="71.0199203491211" y="0" font-family="Virgil, Segoe UI Emoji" font-size="20px" fill="#1e1e1e" text-anchor="middle" style="white-space: pre;" direction="ltr" dominant-baseline="text-before-edge">TonPromiseEye</text></g><g stroke-linecap="round" transform="translate(224.93772040473084 273.347619047619) rotate(0 80.49999999999997 79.5)"><path d="M110.08 5.59 C120 8.41, 130.8 17.08, 138.48 24.79 C146.16 32.5, 152.29 41.68, 156.17 51.84 C160.04 62.01, 162.48 75.08, 161.75 85.77 C161.02 96.47, 157.07 106.6, 151.81 116.02 C146.55 125.43, 138.68 135.55, 130.17 142.27 C121.66 148.99, 111.43 153.76, 100.74 156.34 C90.04 158.92, 76.91 159.64, 65.98 157.75 C55.06 155.87, 44.09 151.23, 35.18 145.06 C26.26 138.89, 18.16 129.96, 12.5 120.74 C6.85 111.52, 2.96 100.27, 1.25 89.74 C-0.45 79.22, -0.64 67.82, 2.28 57.59 C5.19 47.36, 11.56 36.53, 18.74 28.37 C25.92 20.2, 35.48 13.45, 45.35 8.59 C55.21 3.73, 66.6 -0.47, 77.92 -0.78 C89.24 -1.1, 107.4 5.21, 113.24 6.71 C119.09 8.21, 113.66 7.11, 113 8.23 M79.84 -0.63 C89.88 -2.01, 102.3 1.42, 112.46 5.88 C122.61 10.34, 133.15 17.73, 140.78 26.14 C148.41 34.55, 155.06 45.97, 158.22 56.34 C161.39 66.72, 161.18 78.04, 159.77 88.41 C158.36 98.78, 155.01 109.3, 149.77 118.55 C144.54 127.8, 136.92 137.63, 128.37 143.91 C119.83 150.18, 109.31 154.16, 98.51 156.21 C87.7 158.25, 74.35 158.28, 63.55 156.18 C52.74 154.08, 42.4 149.8, 33.69 143.63 C24.98 137.46, 16.86 128.35, 11.28 119.14 C5.7 109.92, 1.5 99.22, 0.21 88.34 C-1.08 77.47, -0.01 64.41, 3.55 53.88 C7.1 43.35, 14.3 32.97, 21.56 25.16 C28.82 17.36, 37.45 11.12, 47.11 7.04 C56.77 2.96, 73.72 1.47, 79.51 0.68 C85.3 -0.11, 81.56 1.27, 81.84 2.3" stroke="#1e1e1e" stroke-width="1" fill="none"></path></g><g transform="translate(253.88351392351063 332.63262994328846) rotate(0 51.632110595703125 19.999999999999993)"><text x="51.632110595703125" y="0" font-family="Virgil, Segoe UI Emoji" font-size="16px" fill="#1e1e1e" text-anchor="middle" style="white-space: pre;" direction="ltr" dominant-baseline="text-before-edge">UserCallBack</text><text x="51.632110595703125" y="20" font-family="Virgil, Segoe UI Emoji" font-size="16px" fill="#1e1e1e" text-anchor="middle" style="white-space: pre;" direction="ltr" dominant-baseline="text-before-edge">Contract</text></g><g stroke-linecap="round" transform="translate(235.60438707139764 839.6666666666666) rotate(0 63 63)"><path d="M56.51 -0.27 C65.54 -2.26, 77.57 0.49, 86.79 4.34 C96 8.18, 105.4 15.46, 111.8 22.8 C118.2 30.14, 123.02 38.94, 125.18 48.37 C127.35 57.81, 127.56 69.87, 124.79 79.42 C122.02 88.97, 115.43 98.45, 108.55 105.66 C101.68 112.86, 92.58 119.25, 83.55 122.65 C74.52 126.05, 63.81 127.6, 54.37 126.06 C44.94 124.51, 35 119.22, 26.95 113.37 C18.9 107.51, 10.72 99.46, 6.07 90.95 C1.42 82.44, -1.25 72.17, -0.96 62.32 C-0.67 52.46, 3.03 40.54, 7.81 31.81 C12.59 23.07, 18.22 15.16, 27.73 9.91 C37.25 4.66, 57.37 1.56, 64.9 0.32 C72.43 -0.93, 72.88 1.46, 72.91 2.43 M46.37 1.15 C54.9 -2.23, 65.28 0.61, 74.79 2.56 C84.29 4.51, 95.59 6.88, 103.4 12.83 C111.2 18.79, 117.66 29.16, 121.61 38.3 C125.56 47.44, 128.03 58.06, 127.09 67.7 C126.16 77.33, 121.59 88.02, 116.01 96.1 C110.42 104.18, 101.93 110.97, 93.59 116.19 C85.24 121.41, 75.33 126.65, 65.94 127.42 C56.54 128.19, 46.13 125.04, 37.2 120.82 C28.27 116.6, 18.56 110.24, 12.35 102.11 C6.15 93.99, 1.48 82.05, -0.02 72.06 C-1.53 62.08, 0.32 51.37, 3.33 42.18 C6.34 33, 11 23.49, 18.04 16.95 C25.08 10.4, 41.15 5.34, 45.58 2.91 C50.02 0.49, 44.22 1.41, 44.63 2.4" stroke="#1e1e1e" stroke-width="1" fill="none"></path></g><g transform="translate(266.3066980036178 877.6189394519141) rotate(0 32.249961853027344 25)"><text x="32.249961853027344" y="0" font-family="Virgil, Segoe UI Emoji" font-size="20px" fill="#1e1e1e" text-anchor="middle" style="white-space: pre;" direction="ltr" dominant-baseline="text-before-edge">Signal </text><text x="32.249961853027344" y="25" font-family="Virgil, Segoe UI Emoji" font-size="20px" fill="#1e1e1e" text-anchor="middle" style="white-space: pre;" direction="ltr" dominant-baseline="text-before-edge">Source</text></g><g mask="url(#mask-kJBAdgDdnhmQ7rLjcwv6k)" stroke-linecap="round"><g transform="translate(300.6492482048266 829.1197081416884) rotate(0 1.2710599615082572 -68.5045270809851)"><path d="M1.1 -0.64 C1.53 -23.29, 2.07 -114.16, 2.32 -136.88 M0.23 1.63 C0.55 -21.27, 1.31 -115.21, 1.64 -138.64" stroke="#1e1e1e" stroke-width="1" fill="none"></path></g><g transform="translate(300.6492482048266 829.1197081416884) rotate(0 1.2710599615082572 -68.5045270809851)"><path d="M10.53 -109.47 C10.17 -116.92, 7.23 -126.28, 0.15 -139.2 M11.69 -110.95 C9.13 -118.59, 5.41 -126.6, 2.59 -139.26" stroke="#1e1e1e" stroke-width="1" fill="none"></path></g><g transform="translate(300.6492482048266 829.1197081416884) rotate(0 1.2710599615082572 -68.5045270809851)"><path d="M-9.99 -109.69 C-4.57 -117.26, -1.72 -126.57, 0.15 -139.2 M-8.83 -111.17 C-5.44 -118.7, -3.21 -126.64, 2.59 -139.26" stroke="#1e1e1e" stroke-width="1" fill="none"></path></g></g><mask id="mask-kJBAdgDdnhmQ7rLjcwv6k"><rect x="0" y="0" fill="#fff" width="402.43919148552766" height="1066.6838607278214"></rect><rect x="247.38427721822404" y="747.8376318486221" fill="#000" width="108.31988525390625" height="25" opacity="1"></rect></mask><g transform="translate(247.38427721822404 747.837631848622) rotate(0 54.53603094811089 12.77754921208134)"><text x="54.159942626953125" y="0" font-family="Virgil, Segoe UI Emoji" font-size="20px" fill="#1e1e1e" text-anchor="middle" style="white-space: pre;" direction="ltr" dominant-baseline="text-before-edge">Send Signal</text></g><g mask="url(#mask-dCNYmVX1dExuXqyF_55ur)" stroke-linecap="round"><g transform="translate(308.943770741136 438.38226015381775) rotate(0 -0.11911485500078811 76.49271077805948)"><path d="M-0.61 -0.53 C-0.75 25.03, -0.48 126.87, -0.59 152.51 M1.27 1.8 C0.95 27.56, -0.91 128.07, -1.51 153.52" stroke="#1e1e1e" stroke-width="1" fill="none"></path></g><g transform="translate(308.943770741136 438.38226015381775) rotate(0 -0.11911485500078811 76.49271077805948)"><path d="M-12.07 125.2 C-9.94 133.28, -5.49 144.49, -3.24 153.64 M-10.98 125.86 C-8.94 131.77, -6.18 138.6, -1.03 153.55" stroke="#1e1e1e" stroke-width="1" fill="none"></path></g><g transform="translate(308.943770741136 438.38226015381775) rotate(0 -0.11911485500078811 76.49271077805948)"><path d="M8.44 125.62 C3.97 133.46, 1.81 144.54, -3.24 153.64 M9.53 126.28 C6.7 132.19, 4.6 138.91, -1.03 153.55" stroke="#1e1e1e" stroke-width="1" fill="none"></path></g></g><mask id="mask-dCNYmVX1dExuXqyF_55ur"><rect x="0" y="0" fill="#fff" width="409.578510854536" height="691.8888888888889"></rect><rect x="231.03649589927977" y="502.63557452135325" fill="#000" width="155.1798095703125" height="25" opacity="1"></rect></mask><g transform="translate(231.03649589927977 502.6355745213533) rotate(0 77.78815998685545 12.239396410523923)"><text x="77.58990478515625" y="0" font-family="Virgil, Segoe UI Emoji" font-size="20px" fill="#1e1e1e" text-anchor="middle" style="white-space: pre;" direction="ltr" dominant-baseline="text-before-edge">Subscribe sigmal</text></g><g stroke-linecap="round" transform="translate(234.93772040473084 10) rotate(0 71.99999999999997 71)"><path d="M65.28 0.74 C75.25 -1.16, 88.3 0.45, 98.21 3.82 C108.11 7.2, 117.6 13.39, 124.71 20.97 C131.81 28.54, 137.68 39.45, 140.85 49.26 C144.01 59.08, 145.32 69.75, 143.7 79.85 C142.08 89.95, 136.91 101.08, 131.13 109.86 C125.34 118.64, 117.86 127.3, 108.98 132.52 C100.09 137.73, 88.13 140.41, 77.82 141.17 C67.51 141.92, 56.89 140.48, 47.13 137.03 C37.36 133.57, 26.55 127.68, 19.22 120.43 C11.9 113.19, 6.23 103.53, 3.16 93.56 C0.08 83.58, -0.57 70.92, 0.77 60.58 C2.11 50.25, 5.35 39.98, 11.2 31.54 C17.04 23.1, 25.52 15.17, 35.84 9.94 C46.16 4.71, 65.91 1.44, 73.12 0.17 C80.34 -1.1, 79.3 1.29, 79.14 2.33 M70.21 -1.15 C80.05 -2.34, 93.12 3.14, 102.48 7.6 C111.85 12.07, 119.68 17.7, 126.41 25.65 C133.14 33.6, 140.18 45.3, 142.85 55.28 C145.52 65.26, 144.84 75.91, 142.43 85.53 C140.02 95.14, 134.97 104.61, 128.4 112.94 C121.83 121.28, 112.03 130.94, 103 135.56 C93.97 140.19, 84.53 140.88, 74.22 140.68 C63.91 140.47, 51.01 138.39, 41.16 134.33 C31.3 130.27, 21.69 124.1, 15.09 116.3 C8.5 108.5, 3.97 97.41, 1.59 87.53 C-0.79 77.66, -1.3 67.05, 0.8 57.06 C2.9 47.07, 7.69 35.77, 14.21 27.59 C20.74 19.4, 30.39 12.77, 39.96 7.95 C49.52 3.12, 66.24 -0.47, 71.63 -1.35 C77.01 -2.23, 72.38 1.34, 72.25 2.69" stroke="#1e1e1e" stroke-width="1" fill="none"></path></g><g transform="translate(276.5160681700416 55.79541853575512) rotate(0 30.509963989257812 25)"><text x="30.509963989257812" y="0" font-family="Virgil, Segoe UI Emoji" font-size="20px" fill="#1e1e1e" text-anchor="middle" style="white-space: pre;" direction="ltr" dominant-baseline="text-before-edge">User</text><text x="30.509963989257812" y="25" font-family="Virgil, Segoe UI Emoji" font-size="20px" fill="#1e1e1e" text-anchor="middle" style="white-space: pre;" direction="ltr" dominant-baseline="text-before-edge">Wallet</text></g><g mask="url(#mask-Iln4qMDB-a9O-QcVKANen)" stroke-linecap="round"><g transform="translate(310.5671023568246 156.91909783054763) rotate(0 -0.010638179300968886 57.68639729495379)"><path d="M-0.89 -0.61 C-0.71 18.38, 0.14 95.46, 0.13 114.71 M0.84 1.68 C1.03 20.77, 0.1 96.93, -0.33 115.98" stroke="#1e1e1e" stroke-width="1" fill="none"></path></g><g transform="translate(310.5671023568246 156.91909783054763) rotate(0 -0.010638179300968886 57.68639729495379)"><path d="M-11.15 89.16 C-8.62 93.76, -6.21 101.51, -0.79 115.82 M-10.51 87.27 C-6.38 94.41, -3.93 102.18, -0.58 115.06" stroke="#1e1e1e" stroke-width="1" fill="none"></path></g><g transform="translate(310.5671023568246 156.91909783054763) rotate(0 -0.010638179300968886 57.68639729495379)"><path d="M9.37 89.49 C7.34 93.87, 5.21 101.54, -0.79 115.82 M10.01 87.6 C8.65 94.69, 5.61 102.37, -0.58 115.06" stroke="#1e1e1e" stroke-width="1" fill="none"></path></g></g><mask id="mask-Iln4qMDB-a9O-QcVKANen"><rect x="0" y="0" fill="#fff" width="411.35162627393703" height="372.12913629345724"></rect><rect x="276.174878545241" y="202.02411706200243" fill="#000" width="67.99992370605469" height="25" opacity="1"></rect></mask><g transform="translate(276.17487854524103 202.0241170620024) rotate(0 34.381585632282594 12.581378063498995)"><text x="33.999961853027344" y="0" font-family="Virgil, Segoe UI Emoji" font-size="20px" fill="#1e1e1e" text-anchor="middle" style="white-space: pre;" direction="ltr" dominant-baseline="text-before-edge">Create</text></g><g mask="url(#mask-aozjBrN5QEzssvFzcE-Pt)" stroke-linecap="round"><g transform="translate(198.60438707139753 648.222222222222) rotate(0 -57.09499883897476 -144.85498702326802)"><path d="M-1.07 -0.21 C-23.77 -25.38, -138.79 -103.14, -135.11 -151.35 C-131.43 -199.57, -4.91 -266.58, 21.01 -289.5 M0.58 -1.36 C-21.83 -26.84, -136.02 -105.15, -132.75 -153.02 C-129.48 -200.89, -5.31 -266.11, 20.19 -288.58" stroke="#1e1e1e" stroke-width="1" fill="none"></path></g><g transform="translate(198.60438707139753 648.222222222222) rotate(0 -57.09499883897476 -144.85498702326802)"><path d="M2.48 -265.24 C11.12 -273.7, 15.2 -284.31, 19.97 -287.68 M2.34 -264.14 C8.5 -274.26, 15.37 -282.22, 20.96 -287.72" stroke="#1e1e1e" stroke-width="1" fill="none"></path></g><g transform="translate(198.60438707139753 648.222222222222) rotate(0 -57.09499883897476 -144.85498702326802)"><path d="M-9.18 -282.13 C3.98 -283.88, 12.61 -287.89, 19.97 -287.68 M-9.31 -281.02 C1.29 -284.77, 12.56 -286.35, 20.96 -287.72" stroke="#1e1e1e" stroke-width="1" fill="none"></path></g></g><mask id="mask-aozjBrN5QEzssvFzcE-Pt"><rect x="0" y="0" fill="#fff" width="454.15751563487714" height="1036.9652265075056"></rect><rect x="10" y="483.4999999999997" fill="#000" width="108.31988525390625" height="25" opacity="1"></rect></mask><g transform="translate(10 483.4999999999997) rotate(0 131.50938823242276 19.86723519895415)"><text x="54.159942626953125" y="0" font-family="Virgil, Segoe UI Emoji" font-size="20px" fill="#1e1e1e" text-anchor="middle" style="white-space: pre;" direction="ltr" dominant-baseline="text-before-edge">Send Signal</text></g><g stroke-linecap="round" transform="translate(526.3821648491753 250.7153351698805) rotate(0 120 93.5)"><path d="M151.25 23.5 M151.25 23.5 C164.54 32.2, 176.9 46.17, 209.75 70.5 M151.25 23.5 C164.2 33.35, 175.62 42.29, 209.75 70.5 M209.75 70.5 C241.98 95.67, 239.39 92.78, 209.75 117.5 M209.75 70.5 C238.64 95.92, 238.19 95.37, 209.75 117.5 M209.75 117.5 C187.72 135.49, 165.32 154.52, 151.25 163.5 M209.75 117.5 C194.33 129.69, 178.46 141.83, 151.25 163.5 M151.25 163.5 C119.1 187.13, 121.39 188.61, 90.75 163.5 M151.25 163.5 C121.79 185.55, 122.48 186.5, 90.75 163.5 M90.75 163.5 C69.06 148.43, 49.17 132.92, 30.25 117.5 M90.75 163.5 C71.38 149.24, 50.9 134.41, 30.25 117.5 M30.25 117.5 C-0.18 92.51, -0.81 93.97, 30.25 70.5 M30.25 117.5 C1.06 95.9, -0.9 95.28, 30.25 70.5 M30.25 70.5 C47.76 57.15, 69.7 42.26, 90.75 23.5 M30.25 70.5 C52.87 53.28, 74.12 37.55, 90.75 23.5 M90.75 23.5 C122.05 0.35, 121.15 1.27, 151.25 23.5 M90.75 23.5 C120.54 0.58, 122.46 1.53, 151.25 23.5" stroke="#1e1e1e" stroke-width="1" fill="none"></path></g><g transform="translate(592.2422264946831 319.4653351698805) rotate(0 54.13993835449219 25)"><text x="54.13993835449219" y="0" font-family="Virgil, Segoe UI Emoji" font-size="20px" fill="#1e1e1e" text-anchor="middle" style="white-space: pre;" direction="ltr" dominant-baseline="text-before-edge">Customized</text><text x="54.13993835449219" y="25" font-family="Virgil, Segoe UI Emoji" font-size="20px" fill="#1e1e1e" text-anchor="middle" style="white-space: pre;" direction="ltr" dominant-baseline="text-before-edge">Action</text></g><g stroke-linecap="round"><g transform="translate(383.048831515842 347.1111111111111) rotate(0 74.5452718266373 -0.8447947788569508)"><path d="M0.46 0.54 C25.37 0.25, 125.23 -1.82, 149.85 -2.23 M-0.76 -0.23 C24.04 -0.37, 124.77 -1.15, 149.41 -1.27" stroke="#1e1e1e" stroke-width="1" fill="none"></path></g></g><mask></mask></svg>