<svg version="1.1" xmlns="http://www.w3.org/2000/svg" viewBox="0 0 873 628.5" width="873" height="628.5">
  <!-- svg-source:excalidraw -->
  
  <defs>
    <style class="style-fonts">
      @font-face {
        font-family: "Virgil";
        src: url("https://excalidraw.com/Virgil.woff2");
      }
      @font-face {
        font-family: "Cascadia";
        src: url("https://excalidraw.com/Cascadia.woff2");
      }
    </style>
    
  </defs>
  <rect x="0" y="0" width="873" height="628.5" fill="#ffffff"></rect><g stroke-linecap="round" transform="translate(10 236) rotate(0 77 75.5)"><path d="M65.5 0.72 C75.7 -1.98, 89.68 0.08, 100.27 3.37 C110.86 6.67, 121.01 13.06, 129.02 20.49 C137.02 27.91, 144.28 37.64, 148.3 47.93 C152.31 58.23, 153.78 71.39, 153.09 82.25 C152.41 93.12, 149.88 103.83, 144.2 113.13 C138.52 122.43, 128.42 131.75, 119.01 138.07 C109.61 144.39, 98.73 149.59, 87.77 151.04 C76.81 152.49, 63.86 150.17, 53.26 146.78 C42.66 143.39, 32.31 138.14, 24.17 130.69 C16.02 123.23, 8.34 112.37, 4.38 102.06 C0.43 91.74, -0.73 79.52, 0.45 68.8 C1.64 58.07, 5.96 47.09, 11.47 37.72 C16.97 28.35, 22.53 18.96, 33.48 12.59 C44.42 6.22, 68.2 1.3, 77.13 -0.5 C86.07 -2.3, 87.18 0.55, 87.09 1.79 M87.56 0.46 C98.13 0.51, 110.94 5.82, 120.41 11.96 C129.88 18.11, 139 27.85, 144.37 37.32 C149.73 46.79, 151.79 57.77, 152.62 68.79 C153.44 79.82, 152.91 93.19, 149.32 103.46 C145.72 113.73, 139.15 123, 131.07 130.43 C122.98 137.87, 111.63 144.64, 100.8 148.08 C89.97 151.52, 77.21 152.75, 66.08 151.07 C54.95 149.39, 43.04 143.94, 34.04 137.99 C25.04 132.05, 17.8 124.52, 12.08 115.4 C6.35 106.28, 0.93 94.17, -0.32 83.28 C-1.58 72.39, 0.62 60.56, 4.54 50.06 C8.47 39.55, 15.26 28.07, 23.24 20.26 C31.22 12.44, 41.52 6.42, 52.43 3.14 C63.35 -0.14, 82.87 0.61, 88.72 0.56 C94.57 0.51, 87.95 1.82, 87.53 2.85" stroke="#1e1e1e" stroke-width="1" fill="none"></path></g><g transform="translate(54.01281508008117 299.11343802041563) rotate(0 33.03996276855469 12.499999999999986)"><text x="33.03996276855469" y="0" font-family="Virgil, Segoe UI Emoji" font-size="20px" fill="#1e1e1e" text-anchor="middle" style="white-space: pre;" direction="ltr" dominant-baseline="text-before-edge">Staker</text></g><g stroke-linecap="round" transform="translate(344 10) rotate(0 259.5 206.5)"><path d="M32 0 M32 0 C173.26 0.26, 314.07 0.64, 487 0 M32 0 C139.97 -2.37, 249.01 -2.17, 487 0 M487 0 C507.97 1.18, 517.52 12.04, 519 32 M487 0 C506.15 2.28, 516.8 10.08, 519 32 M519 32 C519.35 121.52, 518.65 211.81, 519 381 M519 32 C518.09 121.95, 518.34 213.14, 519 381 M519 381 C518.74 403.94, 509.46 414.23, 487 413 M519 381 C517.93 404.62, 509 412.03, 487 413 M487 413 C364.42 414.81, 241.63 414.35, 32 413 M487 413 C362.74 413, 238.3 413.49, 32 413 M32 413 C11.14 413.12, -1.92 402.82, 0 381 M32 413 C11.66 414.5, -1.83 403.94, 0 381 M0 381 C-2.33 261.41, -2.46 143.46, 0 32 M0 381 C-2.42 278.27, -1.83 174.44, 0 32 M0 32 C-0.55 12.63, 8.91 -1.74, 32 0 M0 32 C-0.75 12, 8.59 2.08, 32 0" stroke="#1e1e1e" stroke-width="1" fill="none"></path></g><g transform="translate(568 40) rotate(0 37.96996307373047 12.5)"><text x="37.96996307373047" y="0" font-family="Virgil, Segoe UI Emoji" font-size="20px" fill="#1e1e1e" text-anchor="middle" style="white-space: pre;" direction="ltr" dominant-baseline="text-before-edge">Eventon</text></g><g stroke-linecap="round" transform="translate(471 106) rotate(0 147 36)"><path d="M18 0 M18 0 C78.33 -1.9, 136.88 -0.62, 276 0 M18 0 C71.74 0.03, 125.49 -0.03, 276 0 M276 0 C289.02 -0.72, 292.55 5.47, 294 18 M276 0 C288.76 -2.28, 291.96 8.22, 294 18 M294 18 C295.93 25.15, 293.23 32.35, 294 54 M294 18 C292.88 26.53, 293.93 36.99, 294 54 M294 54 C294.75 65.37, 289 71, 276 72 M294 54 C292.46 66.32, 286.79 71.73, 276 72 M276 72 C183.05 74.16, 88.65 73.57, 18 72 M276 72 C194.02 70.26, 109.85 69.83, 18 72 M18 72 C5.85 70.32, -1.83 66.58, 0 54 M18 72 C5.84 73.48, 1.35 68.1, 0 54 M0 54 C1.46 45.49, 0.15 36.77, 0 18 M0 54 C0.64 42.66, 0.15 29.44, 0 18 M0 18 C-0.43 5.21, 6.69 -1.2, 18 0 M0 18 C0.54 4.75, 4.84 1.15, 18 0" stroke="#1e1e1e" stroke-width="1" fill="none"></path></g><g transform="translate(535.85009765625 129.5) rotate(0 82.14990234375 12.5)"><text x="82.14990234375" y="0" font-family="Virgil, Segoe UI Emoji" font-size="20px" fill="#1e1e1e" text-anchor="middle" style="white-space: pre;" direction="ltr" dominant-baseline="text-before-edge">Universal Router</text></g><g stroke-linecap="round" transform="translate(406 256) rotate(0 43.5 43)"><path d="M8.25 3.2 C8.25 3.2, 8.25 3.2, 8.25 3.2 M8.25 3.2 C8.25 3.2, 8.25 3.2, 8.25 3.2 M4.05 14.12 C6.26 9.86, 11.24 5.22, 15.2 1.29 M4.05 14.12 C5.91 12.17, 8.96 8.74, 15.2 1.29 M1.82 22.78 C8.27 18.53, 11.94 13.17, 21.5 0.14 M1.82 22.78 C6.73 18.52, 9.66 13.59, 21.5 0.14 M1.56 29.18 C10.23 20.99, 18.68 12.05, 27.15 -0.25 M1.56 29.18 C8.22 20.41, 16.24 11.66, 27.15 -0.25 M1.95 34.82 C13.66 20.47, 26.65 7.12, 32.13 0.11 M1.95 34.82 C10.18 25.15, 18.29 16.33, 32.13 0.11 M1.69 41.22 C7.93 32.23, 17.89 21.67, 37.12 0.47 M1.69 41.22 C11.14 32.26, 18.97 21.44, 37.12 0.47 M1.43 47.62 C9.57 36.74, 18.85 27.6, 42.76 0.07 M1.43 47.62 C15.93 31.98, 28.69 14.2, 42.76 0.07 M1.83 53.26 C13.09 43.53, 19.53 31.45, 47.75 0.43 M1.83 53.26 C13.38 39.61, 25.18 26.2, 47.75 0.43 M1.56 59.66 C15.15 41.4, 31.12 21.55, 53.39 0.04 M1.56 59.66 C14.62 45.65, 26.29 28.9, 53.39 0.04 M1.3 66.06 C19.01 43.3, 39.23 21.39, 58.38 0.4 M1.3 66.06 C17.21 48.11, 32.32 31.17, 58.38 0.4 M2.35 70.95 C24.72 45.54, 45.23 21.05, 64.02 0 M2.35 70.95 C23.61 44.82, 47.03 20.53, 64.02 0 M4.06 75.08 C23.45 51.8, 42.59 33.84, 69.01 0.36 M4.06 75.08 C26.87 48.39, 50.55 21.12, 69.01 0.36 M5.11 79.97 C21.19 62.3, 39.55 40.25, 72.69 2.23 M5.11 79.97 C27.67 54.84, 49.18 30.18, 72.69 2.23 M8.13 82.59 C26.65 60.02, 48.55 38.32, 77.02 3.35 M8.13 82.59 C28.87 57.97, 49.53 34.97, 77.02 3.35 M11.15 85.22 C27.53 66.15, 46.94 44.23, 80.69 5.22 M11.15 85.22 C37.48 54.93, 63.98 25.13, 80.69 5.22 M15.48 86.33 C36.23 61.94, 55.9 36.67, 83.71 7.84 M15.48 86.33 C29.42 70.19, 44.02 52.88, 83.71 7.84 M19.15 88.2 C34.19 72.67, 47.96 55.11, 86.73 10.47 M19.15 88.2 C36.62 67.7, 53.34 48.79, 86.73 10.47 M24.8 87.81 C42.76 66.13, 63.69 40.37, 87.78 15.36 M24.8 87.81 C47.84 59.91, 71.57 33.35, 87.78 15.36 M29.78 88.17 C46.02 69.86, 64.52 49.03, 87.52 21.75 M29.78 88.17 C42.97 74.45, 55.55 59.77, 87.52 21.75 M34.77 88.53 C47.53 72.71, 60.5 57.85, 87.26 28.15 M34.77 88.53 C54.88 66.57, 73.69 43.81, 87.26 28.15 M40.42 88.13 C54.51 72.86, 67.84 54.45, 87.65 33.79 M40.42 88.13 C54.03 73.7, 68.23 56.94, 87.65 33.79 M45.4 88.49 C56.46 76.59, 63.56 66.5, 87.39 40.19 M45.4 88.49 C59.37 73.75, 71.61 58.22, 87.39 40.19 M51.05 88.1 C63.05 73.69, 74.38 60.15, 87.13 46.59 M51.05 88.1 C66.09 70.72, 80.02 54.55, 87.13 46.59 M56.03 88.46 C63.87 79.7, 75.71 66.5, 87.52 52.23 M56.03 88.46 C64.85 80.07, 72.95 69.12, 87.52 52.23 M61.68 88.06 C71.15 78.89, 77.47 70.31, 87.26 58.63 M61.68 88.06 C71.49 76.87, 81.07 65.27, 87.26 58.63 M67.32 87.67 C73.03 79.9, 76.66 75.29, 87 65.03 M67.32 87.67 C74.59 79, 83.14 69.85, 87 65.03 M74.27 85.77 C76.52 82.8, 82.12 74.67, 87.39 70.67 M74.27 85.77 C78.96 81.84, 82.3 76.76, 87.39 70.67" stroke="#b2f2bb" stroke-width="0.5" fill="none"></path><path d="M21.5 0 M21.5 0 C32.33 -1.37, 40.48 0.96, 65.5 0 M21.5 0 C30.84 0.03, 41.33 -1.09, 65.5 0 M65.5 0 C80.99 0.87, 86.97 6.34, 87 21.5 M65.5 0 C79.37 1.63, 88.59 5.66, 87 21.5 M87 21.5 C85.91 31.97, 87.61 42.77, 87 64.5 M87 21.5 C87.03 35.99, 86.39 49.51, 87 64.5 M87 64.5 C87.04 80.18, 78.09 85.74, 65.5 86 M87 64.5 C86.63 77.67, 79.22 84.24, 65.5 86 M65.5 86 C53.77 87.15, 42.68 87.02, 21.5 86 M65.5 86 C48.59 86.41, 31.17 86.52, 21.5 86 M21.5 86 C9.09 87.74, -1.24 77.1, 0 64.5 M21.5 86 C8.86 85.6, -1.97 76.94, 0 64.5 M0 64.5 C-0.02 47.22, -0.88 32.86, 0 21.5 M0 64.5 C0.29 49.58, 0.48 32.76, 0 21.5 M0 21.5 C1.58 6.02, 5.19 -1.08, 21.5 0 M0 21.5 C-1.12 6.27, 8.49 2.3, 21.5 0" stroke="#1e1e1e" stroke-width="1" fill="none"></path></g><g transform="translate(416.08003997802734 274) rotate(0 33.419960021972656 25)"><text x="33.419960021972656" y="0" font-family="Virgil, Segoe UI Emoji" font-size="20px" fill="#1e1e1e" text-anchor="middle" style="white-space: pre;" direction="ltr" dominant-baseline="text-before-edge">Child</text><text x="33.419960021972656" y="25" font-family="Virgil, Segoe UI Emoji" font-size="20px" fill="#1e1e1e" text-anchor="middle" style="white-space: pre;" direction="ltr" dominant-baseline="text-before-edge">Router</text></g><g stroke-linecap="round" transform="translate(569.5 252) rotate(0 43.5 43)"><path d="M8.25 3.2 C8.25 3.2, 8.25 3.2, 8.25 3.2 M8.25 3.2 C8.25 3.2, 8.25 3.2, 8.25 3.2 M4.05 14.12 C8.37 9.13, 10.05 4.43, 15.2 1.29 M4.05 14.12 C8.74 9.53, 12.48 4.16, 15.2 1.29 M1.82 22.78 C9.95 16.66, 16.6 8.14, 21.5 0.14 M1.82 22.78 C6.44 17.49, 11.59 10.72, 21.5 0.14 M1.56 29.18 C9.96 17.09, 22.44 8.44, 27.15 -0.25 M1.56 29.18 C11.29 17.02, 20.15 5.99, 27.15 -0.25 M1.95 34.82 C13.08 21.08, 26.28 9.05, 32.13 0.11 M1.95 34.82 C13.39 20.16, 24.69 7.69, 32.13 0.11 M1.69 41.22 C10.97 31.7, 20.46 20, 37.12 0.47 M1.69 41.22 C10.88 30.96, 18.4 20.57, 37.12 0.47 M1.43 47.62 C11.65 35.02, 24.7 17.99, 42.76 0.07 M1.43 47.62 C17.71 28.51, 32.84 11.05, 42.76 0.07 M1.83 53.26 C17.19 36.93, 28.77 21.24, 47.75 0.43 M1.83 53.26 C15.67 38.78, 28.67 22.62, 47.75 0.43 M1.56 59.66 C18.44 41.2, 35.17 21.04, 53.39 0.04 M1.56 59.66 C14.16 45.44, 26.94 30.76, 53.39 0.04 M1.3 66.06 C19.67 42.98, 39.14 21.31, 58.38 0.4 M1.3 66.06 C19.19 45.91, 37.68 23.62, 58.38 0.4 M2.35 70.95 C17.61 53.39, 34.96 35.37, 64.02 0 M2.35 70.95 C20.19 48.59, 40.18 26.68, 64.02 0 M4.06 75.08 C28.54 50.68, 50.03 23.87, 69.01 0.36 M4.06 75.08 C23.66 52.22, 42.97 29.3, 69.01 0.36 M5.11 79.97 C22.41 62.04, 35.34 43.4, 72.69 2.23 M5.11 79.97 C22.79 61.56, 38.12 43.12, 72.69 2.23 M8.13 82.59 C31.31 55.86, 52.63 28.25, 77.02 3.35 M8.13 82.59 C30.59 58.59, 50.65 33.72, 77.02 3.35 M11.15 85.22 C38.16 55.42, 62.18 26.41, 80.69 5.22 M11.15 85.22 C28.76 64.49, 44.96 45.41, 80.69 5.22 M15.48 86.33 C33.07 66.01, 49.73 43.82, 83.71 7.84 M15.48 86.33 C40.28 56.66, 66.11 27.78, 83.71 7.84 M19.15 88.2 C41.26 62.86, 65.38 34.54, 86.73 10.47 M19.15 88.2 C35.66 67.89, 54.97 46.52, 86.73 10.47 M24.8 87.81 C38.63 71.11, 56.14 52.2, 87.78 15.36 M24.8 87.81 C37.81 71.48, 51.61 56.36, 87.78 15.36 M29.78 88.17 C45.06 69.96, 57.1 57, 87.52 21.75 M29.78 88.17 C49.93 64.98, 69.9 42.46, 87.52 21.75 M34.77 88.53 C56.51 65.06, 73.49 44.58, 87.26 28.15 M34.77 88.53 C52.38 68.16, 70.72 46.09, 87.26 28.15 M40.42 88.13 C53.92 73.33, 65.18 59.46, 87.65 33.79 M40.42 88.13 C53.73 72.8, 68.72 55.5, 87.65 33.79 M45.4 88.49 C59.63 73.95, 70.33 57.09, 87.39 40.19 M45.4 88.49 C60.2 70.51, 76.49 53.94, 87.39 40.19 M51.05 88.1 C59.27 80.75, 64.64 70.88, 87.13 46.59 M51.05 88.1 C58.21 78.88, 66.44 70.47, 87.13 46.59 M56.03 88.46 C65.27 77.91, 74.4 68.41, 87.52 52.23 M56.03 88.46 C62.57 80.88, 67.87 74.84, 87.52 52.23 M61.68 88.06 C67.89 79.3, 72.33 74.24, 87.26 58.63 M61.68 88.06 C67.87 82.06, 72.58 75.35, 87.26 58.63 M67.32 87.67 C71.48 79.71, 79.35 72.9, 87 65.03 M67.32 87.67 C73.34 80.46, 81.52 71.41, 87 65.03 M74.27 85.77 C77.45 79.54, 80.56 77.12, 87.39 70.67 M74.27 85.77 C78.11 82.42, 81.11 78.51, 87.39 70.67" stroke="#a5d8ff" stroke-width="0.5" fill="none"></path><path d="M21.5 0 M21.5 0 C35.12 1.49, 48.91 -1.63, 65.5 0 M21.5 0 C38.59 -0.53, 56.35 -0.65, 65.5 0 M65.5 0 C79.02 1.16, 87.17 6.84, 87 21.5 M65.5 0 C80.32 -0.38, 85.79 5.1, 87 21.5 M87 21.5 C88.47 40.62, 86.22 54.47, 87 64.5 M87 21.5 C87.68 33.09, 86.66 42.52, 87 64.5 M87 64.5 C86.42 79.94, 80 84.83, 65.5 86 M87 64.5 C87.16 80.31, 78 85.49, 65.5 86 M65.5 86 C56.2 85.77, 45.35 86.01, 21.5 86 M65.5 86 C52.09 86, 38.41 86.48, 21.5 86 M21.5 86 C6.67 85.76, 0.1 79.36, 0 64.5 M21.5 86 C8.19 85.54, 0.32 77.54, 0 64.5 M0 64.5 C-1.27 51.13, 0.42 42.32, 0 21.5 M0 64.5 C0.29 56.55, -0.73 47.98, 0 21.5 M0 21.5 C0.84 7.38, 6.53 -1.05, 21.5 0 M0 21.5 C-0.19 7.37, 6.26 1.55, 21.5 0" stroke="#1e1e1e" stroke-width="1" fill="none"></path></g><g transform="translate(579.5800399780273 270) rotate(0 33.419960021972656 25)"><text x="33.419960021972656" y="0" font-family="Virgil, Segoe UI Emoji" font-size="20px" fill="#1e1e1e" text-anchor="middle" style="white-space: pre;" direction="ltr" dominant-baseline="text-before-edge">Child</text><text x="33.419960021972656" y="25" font-family="Virgil, Segoe UI Emoji" font-size="20px" fill="#1e1e1e" text-anchor="middle" style="white-space: pre;" direction="ltr" dominant-baseline="text-before-edge">Router</text></g><g stroke-linecap="round" transform="translate(712.5 249) rotate(0 43.5 43)"><path d="M8.25 3.2 C8.25 3.2, 8.25 3.2, 8.25 3.2 M8.25 3.2 C8.25 3.2, 8.25 3.2, 8.25 3.2 M4.05 14.12 C9.28 9.82, 12.56 3.91, 15.2 1.29 M4.05 14.12 C8.49 10.44, 12.27 5.72, 15.2 1.29 M1.82 22.78 C6.03 17.68, 11.44 9.76, 21.5 0.14 M1.82 22.78 C8.63 13.81, 17.46 6.5, 21.5 0.14 M1.56 29.18 C11.63 16.14, 19.75 5.12, 27.15 -0.25 M1.56 29.18 C11.06 17.76, 21.55 7.27, 27.15 -0.25 M1.95 34.82 C13.31 19.27, 24.12 7.91, 32.13 0.11 M1.95 34.82 C9.94 26.01, 18.15 16.17, 32.13 0.11 M1.69 41.22 C11.49 31.09, 17.69 20.46, 37.12 0.47 M1.69 41.22 C11.15 29.96, 22.06 16.4, 37.12 0.47 M1.43 47.62 C17.97 28.18, 32.19 11.73, 42.76 0.07 M1.43 47.62 C14.68 32.97, 26.21 18.51, 42.76 0.07 M1.83 53.26 C16.42 39.27, 29.05 22.32, 47.75 0.43 M1.83 53.26 C16.93 36.4, 31.98 18.63, 47.75 0.43 M1.56 59.66 C14.44 45.56, 27.11 31.04, 53.39 0.04 M1.56 59.66 C18.28 39.12, 35.66 19.49, 53.39 0.04 M1.3 66.06 C18.98 46.52, 37.48 23.19, 58.38 0.4 M1.3 66.06 C15.88 49.54, 31.45 32.59, 58.38 0.4 M2.35 70.95 C19.51 48.63, 40.33 26.87, 64.02 0 M2.35 70.95 C24.81 47.2, 45.47 22.38, 64.02 0 M4.06 75.08 C24.06 52.45, 43.11 29.11, 69.01 0.36 M4.06 75.08 C20.2 57.91, 33.97 40.18, 69.01 0.36 M5.11 79.97 C23.2 61.87, 37.34 44, 72.69 2.23 M5.11 79.97 C27.64 53.7, 49.32 27.23, 72.69 2.23 M8.13 82.59 C31.56 58.97, 50.32 33.81, 77.02 3.35 M8.13 82.59 C34.09 53.55, 58.64 24.62, 77.02 3.35 M11.15 85.22 C29.04 63.62, 43.98 45.56, 80.69 5.22 M11.15 85.22 C29.17 64.46, 46.68 42.8, 80.69 5.22 M15.48 86.33 C39.83 56.09, 66.49 27.11, 83.71 7.84 M15.48 86.33 C38.37 59.97, 62.48 31.94, 83.71 7.84 M19.15 88.2 C35 67.91, 55.82 45.63, 86.73 10.47 M19.15 88.2 C34.82 69.52, 52.32 49.99, 86.73 10.47 M24.8 87.81 C37.72 70.53, 51.51 56.16, 87.78 15.36 M24.8 87.81 C40.42 69.1, 54.56 53.27, 87.78 15.36 M29.78 88.17 C49.61 64.77, 69.63 42.64, 87.52 21.75 M29.78 88.17 C52.58 62.76, 72.83 39, 87.52 21.75 M34.77 88.53 C51.86 68.37, 70.34 45.18, 87.26 28.15 M34.77 88.53 C48.68 72.82, 61.75 57.33, 87.26 28.15 M40.42 88.13 C52.81 73.4, 69.06 54.59, 87.65 33.79 M40.42 88.13 C55.46 71.26, 68.98 53.44, 87.65 33.79 M45.4 88.49 C59.6 69.72, 77.03 54.01, 87.39 40.19 M45.4 88.49 C54.23 79.13, 61.77 68.62, 87.39 40.19 M51.05 88.1 C57.22 78.76, 65.5 71.35, 87.13 46.59 M51.05 88.1 C61.6 75.99, 71.95 64.58, 87.13 46.59 M56.03 88.46 C63.04 80.54, 67.26 75.78, 87.52 52.23 M56.03 88.46 C63.32 78.96, 69.94 71.37, 87.52 52.23 M61.68 88.06 C68.53 82.47, 72.54 75.26, 87.26 58.63 M61.68 88.06 C68.28 78.88, 76.79 70.21, 87.26 58.63 M67.32 87.67 C72.54 80.92, 82.1 70.64, 87 65.03 M67.32 87.67 C72.74 80.23, 78.07 74.69, 87 65.03 M74.27 85.77 C78.95 82.66, 81.9 78.35, 87.39 70.67 M74.27 85.77 C78.49 82.01, 82.76 75.99, 87.39 70.67" stroke="#ffec99" stroke-width="0.5" fill="none"></path><path d="M21.5 0 M21.5 0 C38.37 -0.66, 56.56 -0.9, 65.5 0 M21.5 0 C32.75 0.17, 44.16 -0.56, 65.5 0 M65.5 0 C78.04 1.98, 86.47 7.35, 87 21.5 M65.5 0 C81.65 2.26, 86.24 5.64, 87 21.5 M87 21.5 C87.97 34.08, 85.92 42.35, 87 64.5 M87 21.5 C86.65 33.21, 87.88 43.99, 87 64.5 M87 64.5 C86.55 77.85, 77.98 86.22, 65.5 86 M87 64.5 C89 78.52, 82.04 85.95, 65.5 86 M65.5 86 C51.77 85.68, 37.49 86.64, 21.5 86 M65.5 86 C53.66 86.47, 41.09 86.16, 21.5 86 M21.5 86 C6.04 85.36, -0.08 78.07, 0 64.5 M21.5 86 C5.69 83.88, 0.46 79.86, 0 64.5 M0 64.5 C0.56 57.28, -1.48 48.82, 0 21.5 M0 64.5 C-0.57 49.72, 0.04 34.72, 0 21.5 M0 21.5 C1.35 6.11, 9 -1.85, 21.5 0 M0 21.5 C1.92 5.96, 7.51 -0.4, 21.5 0" stroke="#1e1e1e" stroke-width="1" fill="none"></path></g><g transform="translate(722.5800399780273 267) rotate(0 33.419960021972656 25)"><text x="33.419960021972656" y="0" font-family="Virgil, Segoe UI Emoji" font-size="20px" fill="#1e1e1e" text-anchor="middle" style="white-space: pre;" direction="ltr" dominant-baseline="text-before-edge">Child</text><text x="33.419960021972656" y="25" font-family="Virgil, Segoe UI Emoji" font-size="20px" fill="#1e1e1e" text-anchor="middle" style="white-space: pre;" direction="ltr" dominant-baseline="text-before-edge">Router</text></g><g stroke-linecap="round"><g transform="translate(613 179) rotate(0 -0.2671357139945485 36.038634054241705)"><path d="M1.2 1.1 C0.8 12.74, -1.22 58.71, -1.73 70.28 M0.37 0.63 C0.3 12.37, 0.56 59.61, 0.59 71.45" stroke="#1e1e1e" stroke-width="1" fill="none"></path></g></g><mask></mask><g stroke-linecap="round"><g transform="translate(613 218) rotate(0 -82.07797066122293 19.15013960748911)"><path d="M1.7 -0.46 C-50.52 -0.17, -100.7 -1.82, -165.86 1.02 M-0.52 -0.45 C-48.36 0.52, -95.97 0.06, -165.73 1.23 M-165.49 -0.73 C-163.01 14.76, -163.81 29.87, -162.37 39.03 M-164.08 0.85 C-164.79 16.42, -164.99 29.38, -163.34 38.51" stroke="#1e1e1e" stroke-width="1" fill="none"></path></g></g><mask></mask><g stroke-linecap="round"><g transform="translate(612 220) rotate(0 76.7411492690444 14.82651580311358)"><path d="M-1.22 1.24 C41.18 1.87, 82.98 2.54, 153.8 0.19 M0.65 -0.54 C51.71 -1.1, 103.51 -0.38, 152.62 -0.43 M154.7 -1.2 C151.93 8.34, 151.48 16.62, 151.19 31.56 M153.49 -1.9 C153.18 6.79, 153.16 14.93, 151.84 31.28" stroke="#1e1e1e" stroke-width="1" fill="none"></path></g></g><mask></mask><g stroke-linecap="round" transform="translate(554 507.5) rotate(0 58 55.5)"><path d="M11.74 22.13 C11.74 22.13, 11.74 22.13, 11.74 22.13 M11.74 22.13 C11.74 22.13, 11.74 22.13, 11.74 22.13 M4.92 35.69 C11.13 26.59, 18.8 20.15, 30.35 10.05 M5.95 35.44 C10.97 29.63, 15.64 22.49, 28.58 9.03 M0.99 46.68 C10.8 34.93, 22.07 24.15, 33.31 9.82 M0.74 46.23 C7.61 39.43, 15.36 30.44, 33.91 8.01 M2.51 51.93 C16.38 35.23, 32.02 16.53, 40.88 5.83 M1.07 51.78 C9.57 43.44, 18.67 33.53, 41.84 6.92 M0.29 58.64 C17.3 38.04, 37.28 18.53, 47.94 4.12 M1.05 57.82 C14.67 43.04, 27.29 27.23, 46.94 5.85 M2.23 64.49 C18.99 48.13, 31.04 28.56, 56.2 3.72 M1.2 63.69 C16.13 45.02, 31.73 28.3, 54.33 2.63 M1.82 69.97 C21.11 47.5, 44.6 20.15, 63.44 0.2 M2.31 69.28 C15.96 52.9, 30.61 36.23, 62.22 1.05 M4.52 75.84 C28.46 48.02, 52.73 17.84, 66.56 2.97 M3.2 75.15 C23.63 50.28, 46.26 26.45, 66.41 2.71 M4.91 78.16 C28.08 50.6, 50.72 28.19, 70.51 4.66 M5.24 78.14 C25.78 53.6, 45.73 29.85, 70.56 3.07 M6.42 80.79 C29.09 57.96, 49.76 35.79, 74.91 4.22 M7.44 80.54 C27.3 60.26, 44.85 38.29, 74.13 5.17 M10.36 85.85 C32.68 59.15, 53.55 35.93, 77.67 6.4 M10.93 85.15 C26.8 64.93, 43.41 47.7, 79.5 5.7 M11.76 90.29 C27.07 67.15, 45.68 48.78, 84.83 8.46 M12.06 88.46 C35.43 61.38, 58.36 34.82, 83.05 6.4 M15.67 93.05 C32.31 69.73, 54.17 45.2, 87.55 6.72 M14.15 92.48 C41.93 59.41, 69.77 28.47, 87.64 7.18 M15.01 93.9 C37.53 73.53, 56.68 50.09, 91.33 12.06 M16.73 96.16 C43.23 66.32, 67.65 37.98, 91.12 10.26 M19.63 99.88 C37.27 77.15, 53.89 60.82, 93.58 11.11 M19.89 98.48 C34.92 78.88, 49.61 62.63, 93.33 12.01 M24.02 101.81 C40.71 77.48, 59.68 57.7, 98.18 16.8 M23.46 99.6 C44.65 77.22, 63.76 53.2, 95.99 16.07 M28.46 101.33 C42.77 82.01, 60.16 63.35, 97.79 17.34 M27.49 102.46 C43.75 81.77, 61.98 61.15, 98.45 19.04 M28.71 104.59 C57.9 73.18, 83.17 46.05, 103.73 23.02 M29.28 105.16 C52.25 76.33, 75.15 49.78, 102.84 21.78 M33.11 105.79 C50.49 91.44, 62 70.76, 106.28 25.36 M33.95 107.13 C53.69 84.17, 73.19 60.81, 105.86 23.35 M39.03 106.42 C58.14 83.34, 79.02 58.74, 107.81 28.23 M38.17 108.93 C63.16 79.42, 88.39 50.98, 109.23 26.58 M41.88 110.27 C55.61 90.98, 73.88 73.05, 111.22 31.49 M40.6 109.94 C67.14 80.86, 91.41 51.57, 109.48 30.47 M46.93 111.37 C65.53 88.95, 84.45 66.88, 112.97 37.58 M47.05 108.91 C69.07 84.66, 90.74 59.74, 110.41 35.33 M52.4 111.86 C69.74 90.32, 85.52 71.56, 111.49 39.18 M50.98 110.46 C66.62 93.68, 81.77 75.06, 112.84 39.11 M55.15 111.13 C75.98 88.66, 94.22 66.94, 113.71 45.3 M56.56 110.82 C72.44 92.26, 89.1 74.77, 114.51 44.07 M61.1 111.85 C80.47 91.25, 95.25 70.36, 113.97 49.47 M62.43 110.52 C78.31 91.56, 96.05 71.98, 116.41 49.63 M69.07 108.51 C81.08 96.37, 96.44 78.64, 119.27 53.27 M66.94 109.53 C79.78 96.96, 92.33 83.17, 117.35 52.52 M71.76 109.87 C86.99 92.91, 105.71 74.09, 114.97 60.57 M72.52 112.35 C82.33 100.51, 92.69 88.42, 117.04 59.64 M82.11 107.93 C94.49 91.49, 108.46 77.08, 113.73 67.52 M81.39 105.61 C88.93 97.91, 94.62 89.94, 116.48 66.65 M89.35 100.59 C96.51 93.84, 101.42 86.46, 110.85 76.82 M90.98 103.31 C97.5 93.89, 105.56 84.56, 112.56 76.92" stroke="#a5d8ff" stroke-width="0.5" fill="none"></path><path d="M32.18 6.16 C39.57 1.73, 51.11 -0.47, 60.3 -0.26 C69.49 -0.05, 79.54 3.18, 87.32 7.42 C95.11 11.67, 102.35 17.91, 106.99 25.19 C111.64 32.47, 114.42 42.36, 115.18 51.09 C115.93 59.82, 114.96 69.72, 111.54 77.56 C108.11 85.41, 101.51 92.7, 94.63 98.15 C87.76 103.6, 79.18 108.34, 70.31 110.25 C61.44 112.15, 50.28 111.92, 41.43 109.57 C32.57 107.22, 23.71 102.14, 17.2 96.16 C10.69 90.18, 5.14 82.03, 2.35 73.69 C-0.44 65.35, -1.11 54.75, 0.47 46.13 C2.06 37.51, 5.85 28.81, 11.87 21.97 C17.9 15.13, 32.02 7.98, 36.6 5.09 C41.18 2.2, 39.13 3.98, 39.35 4.62 M34.76 3.72 C42.21 -0.3, 51.62 -1.63, 60.59 -0.64 C69.56 0.36, 80.76 5.03, 88.59 9.7 C96.42 14.38, 102.85 20.46, 107.56 27.43 C112.27 34.41, 116.2 43.24, 116.84 51.55 C117.48 59.86, 115.31 69.49, 111.38 77.3 C107.45 85.11, 100.58 93.05, 93.25 98.41 C85.91 103.77, 76.29 107.88, 67.38 109.45 C58.46 111.02, 48.46 110.18, 39.75 107.82 C31.04 105.45, 21.14 101.11, 15.12 95.26 C9.1 89.41, 6.05 80.83, 3.62 72.7 C1.2 64.56, -0.79 54.9, 0.59 46.44 C1.96 37.98, 6.16 29.12, 11.87 21.92 C17.57 14.72, 31.11 6.16, 34.82 3.25 C38.53 0.33, 33.76 3.11, 34.11 4.42" stroke="#1e1e1e" stroke-width="1" fill="none"></path></g><g transform="translate(579.8978408708676 537.7555736441466) rotate(0 32.0899658203125 25)"><text x="32.0899658203125" y="0" font-family="Virgil, Segoe UI Emoji" font-size="20px" fill="#1e1e1e" text-anchor="middle" style="white-space: pre;" direction="ltr" dominant-baseline="text-before-edge">Signal</text><text x="32.0899658203125" y="25" font-family="Virgil, Segoe UI Emoji" font-size="20px" fill="#1e1e1e" text-anchor="middle" style="white-space: pre;" direction="ltr" dominant-baseline="text-before-edge">Source</text></g><g stroke-linecap="round" transform="translate(710 502.5) rotate(0 58 55.5)"><path d="M21.43 12.01 C21.43 12.01, 21.43 12.01, 21.43 12.01 M21.43 12.01 C21.43 12.01, 21.43 12.01, 21.43 12.01 M6.32 34.84 C13.95 25.76, 25.57 14.78, 29.95 10.58 M6 35.86 C12.19 28.56, 18.58 21.79, 30.58 9.47 M5.94 42.35 C10.58 34.03, 19.72 25.96, 39.65 5.73 M5.4 44.56 C12.65 33.47, 22.31 24.08, 37.96 5.64 M3.78 49.92 C17.41 34.63, 34.78 17.91, 44.32 1 M4.22 49.97 C18.68 33.76, 32.73 17.84, 46.3 2.47 M1.31 59.95 C18.84 37.45, 41.44 16.76, 52.68 2.92 M-0.42 61.3 C13.77 45.28, 27.32 31.06, 52.66 0.57 M0.81 64.83 C16.67 48.85, 30.15 30.6, 56.15 2.98 M0.98 64.59 C18.88 46.06, 35.3 26.25, 56.68 2.02 M2.88 69.05 C19.28 53.75, 31.57 36.8, 60.66 2.76 M3.16 69.54 C16.07 54.87, 29.66 39.33, 61.84 2.12 M5.16 75.35 C22.02 56.65, 35.97 34.73, 65.05 3.36 M4.25 74.2 C25 51.95, 44.12 28.44, 67.24 3.44 M6.92 77.55 C32.8 49.67, 57.78 22.28, 72.19 2.16 M5.63 78.44 C26.68 54.32, 46.37 32.77, 72.02 1.23 M9.42 83.71 C31.52 54.95, 53.81 28.34, 74.07 4.39 M7.78 81.78 C22 66.17, 36.25 49.86, 75.91 5.53 M8.99 87.22 C31.14 63.66, 50.57 38.15, 80.09 5.23 M8.67 87.05 C30.94 62.69, 52.88 39.6, 78.85 6.05 M12.14 87.46 C35.95 64.23, 55.5 37.7, 84.29 8.2 M12.23 89.72 C34.24 64.71, 55.44 41.56, 83.61 9.02 M17.32 92.66 C34.09 72.2, 49.15 52.63, 87.73 10.1 M15.55 91.34 C37.11 64.8, 61.7 38.97, 87.51 10.88 M20.62 93.55 C36.29 75.13, 54.5 53.4, 91.51 12.03 M17.91 93.85 C44.5 65.98, 69.03 37.06, 90.87 11.83 M20.23 95.15 C50.08 65.39, 77.49 34.77, 94.61 13.61 M22.63 97.99 C44.37 69.03, 67.83 43.27, 94.19 14.75 M26.18 99.04 C41.36 82.18, 54.98 62.7, 94.91 16.02 M24.14 100.18 C40.69 80.53, 58.63 62.37, 96.56 16.82 M26.08 101.57 C44.25 87.35, 56.15 68.26, 101.6 17.2 M27.18 101.37 C52.18 72.11, 76.57 44.6, 101.45 19.36 M30.87 104.13 C56.34 77.63, 79.67 48.04, 103.69 20.16 M29.86 103.93 C46.65 88.11, 63.61 69.86, 102.54 22.77 M33.89 105.9 C61.63 77.24, 85.55 46.59, 106.3 23.68 M34.12 107.01 C54.26 83.27, 73.49 61.05, 105.46 25.85 M40.7 106.61 C65.04 76.86, 93.85 47.26, 107.81 29.84 M38.93 107.95 C61.71 81.33, 83.96 57.27, 108.29 27.94 M42.76 108.27 C69.03 77.2, 96.62 46.02, 110.95 32.75 M43.35 108.64 C62.53 87.93, 81.19 66.96, 110 32.3 M49.84 110.94 C64.66 87.64, 84.42 67.32, 112.53 36.8 M48.31 109.85 C72.02 80.25, 96.86 50.69, 111.6 34.99 M51.83 110.95 C66.89 94.41, 83.28 77.52, 113.21 38.95 M51.78 110.19 C76.54 83.84, 100.97 55.56, 115.22 39.72 M56.44 111.18 C74.19 92.42, 88.96 75.09, 113.24 45.19 M55.86 110.9 C77.1 88.22, 95.74 65.78, 115.29 45.03 M64.93 109.04 C75.39 96.47, 87.5 80.46, 116.16 50.02 M63.9 110.51 C80.28 91.02, 98.29 72, 115.59 50.33 M67.96 109.5 C80.61 98.43, 89.05 85.72, 116.64 57.5 M69.71 108.51 C85.38 91.08, 102.56 70.78, 116.45 55.61 M77.26 108.56 C88.14 97.73, 98.24 84.61, 116.16 61.22 M76.57 107.4 C86.85 97.03, 96.12 85.35, 115.82 62 M81.37 105.74 C92.46 91.91, 103.94 81.71, 116.8 66.59 M82.43 107.85 C91.91 95.42, 102.18 82.73, 116.45 66.7 M85.48 108.64 C94.39 101.02, 100.9 93.47, 113.73 79.06 M87.01 107.86 C91.79 101.79, 97.59 95.21, 111.72 77.84" stroke="#ffec99" stroke-width="0.5" fill="none"></path><path d="M72.89 2.22 C81.33 3.89, 91.45 10.15, 98.06 15.97 C104.66 21.79, 109.8 28.98, 112.52 37.14 C115.24 45.31, 115.73 56.32, 114.4 64.97 C113.07 73.62, 109.73 82.19, 104.55 89.06 C99.37 95.93, 91.31 102.54, 83.32 106.18 C75.34 109.82, 65.61 111.29, 56.62 110.91 C47.63 110.53, 37.35 108.13, 29.39 103.91 C21.43 99.68, 13.8 92.72, 8.84 85.58 C3.89 78.44, 0.54 69.56, -0.34 61.07 C-1.22 52.59, -0.07 42.88, 3.57 34.69 C7.21 26.49, 14.36 17.45, 21.5 11.93 C28.64 6.4, 37.39 3.09, 46.42 1.52 C55.46 -0.06, 70.14 2, 75.72 2.49 C81.3 2.98, 79.92 3.64, 79.9 4.46 M42.15 3.38 C50.05 0.06, 59.23 0.06, 67.97 1.67 C76.71 3.27, 87.56 7.83, 94.61 13.03 C101.65 18.22, 106.85 25.2, 110.25 32.83 C113.65 40.46, 115.24 50.26, 115.02 58.81 C114.8 67.36, 113.4 76.82, 108.95 84.11 C104.49 91.41, 96.08 98.09, 88.28 102.58 C80.48 107.08, 70.92 110.61, 62.12 111.07 C53.31 111.52, 43.67 108.76, 35.45 105.3 C27.22 101.83, 18.39 96.83, 12.79 90.27 C7.2 83.7, 3.59 74.43, 1.87 65.91 C0.16 57.39, -0.03 47.21, 2.5 39.16 C5.03 31.12, 10.7 23.64, 17.06 17.66 C23.41 11.67, 36.39 5.62, 40.64 3.23 C44.88 0.84, 42.12 2.52, 42.5 3.32" stroke="#1e1e1e" stroke-width="1" fill="none"></path></g><g transform="translate(735.8978408708676 532.7555736441466) rotate(0 32.0899658203125 25)"><text x="32.0899658203125" y="0" font-family="Virgil, Segoe UI Emoji" font-size="20px" fill="#1e1e1e" text-anchor="middle" style="white-space: pre;" direction="ltr" dominant-baseline="text-before-edge">Signal</text><text x="32.0899658203125" y="25" font-family="Virgil, Segoe UI Emoji" font-size="20px" fill="#1e1e1e" text-anchor="middle" style="white-space: pre;" direction="ltr" dominant-baseline="text-before-edge">Source</text></g><g stroke-linecap="round" transform="translate(381 502.5) rotate(0 58 55.5)"><path d="M10.7 23.87 C10.7 23.87, 10.7 23.87, 10.7 23.87 M10.7 23.87 C10.7 23.87, 10.7 23.87, 10.7 23.87 M3.71 38.58 C12.98 27.16, 20.53 18.21, 30.53 8.1 M5.11 37.39 C14.42 25.7, 22.13 15.52, 28.26 9.85 M-0.72 46.81 C15.75 34.13, 26.1 15.86, 36.83 6.9 M1.61 47.31 C11.1 34.87, 20.74 24.17, 35.8 8.87 M2.98 52.18 C10.98 41.62, 19.68 33.07, 42.1 7.7 M0.88 53.42 C13.98 37.89, 24.92 24.1, 42.02 7.78 M0.22 56.83 C16.05 41.33, 31.88 21.79, 46.82 7.65 M1.45 59.14 C19.12 38.54, 37.07 19.07, 47.28 5.3 M1.41 62.96 C14.12 47.08, 29.37 32.45, 53.36 3.47 M1.19 64.16 C16.82 46.93, 32.04 30.82, 53.85 4.26 M4.87 70.36 C17.74 52.38, 31.67 38.76, 62.38 3.48 M2.91 69.29 C20.98 49.8, 38.58 29.84, 60.89 1.05 M3.87 73.92 C15.36 60.18, 31.04 45.2, 66.31 2.08 M1.99 75.37 C24 50, 45.6 25.64, 66.61 3.43 M5.35 79.56 C22.64 57.83, 43.44 34.61, 70.9 5.26 M5.72 78.61 C23.17 60.27, 39.35 40.08, 70.39 3.44 M7.74 80.37 C22.78 63.95, 37.66 47.12, 73.54 5.32 M7.78 82.04 C29.55 56.23, 52.83 30.4, 73.79 5.49 M8.39 83.71 C32.45 59.2, 57.51 30.04, 80.18 7.67 M10.26 86.05 C28.65 63.37, 47.9 43.57, 78.04 6.54 M11.16 88.05 C38.03 59.73, 65.27 27.2, 83.55 8.56 M11.91 88.56 C39.41 59.16, 65.8 27.84, 82.9 7.17 M16.73 92.71 C40.84 61.08, 65.86 30.9, 89.42 8.81 M15.02 92.12 C44.24 58.9, 72.14 26.65, 87.55 8.75 M16.8 95.57 C42.51 63.27, 71.52 34.89, 89.53 13.1 M16.32 95.07 C43.66 63.09, 71.22 33.05, 90.16 12.04 M21.03 98.1 C46.91 71.57, 68.46 39.55, 91.8 15.16 M20.45 97.88 C44.66 70.54, 68.64 43.22, 92.68 13.81 M21.96 100.61 C37.54 84.99, 51.55 66.15, 98.61 16.09 M23.61 99.79 C42.31 78.17, 63.28 57.13, 95.81 16.48 M29.24 104.02 C52.31 70.72, 78.95 42.15, 98.39 20.55 M28.35 101.95 C54.85 69.13, 83.25 38.22, 99.14 19.74 M29.25 102.04 C54.26 74.74, 78.97 50.1, 103.86 22.56 M31.81 103.01 C48.49 81.95, 68.19 60.87, 102.07 21.66 M34.63 107.76 C58.37 79.43, 85.26 48.5, 106.26 23.19 M33.92 105.02 C57.43 79.22, 78.7 53.18, 106.68 23.87 M39.24 106.57 C59.12 83.77, 82.01 56.39, 109.64 28.4 M38.94 107.81 C64.51 77.21, 89.54 48.16, 108.56 26.6 M42.4 108.22 C65.62 82.3, 89.98 56.12, 111.78 32.19 M44.33 108.35 C64.16 85.95, 82.61 62.04, 110.45 31.38 M49.79 109.53 C68.01 86.28, 85.81 62.96, 110.35 33.91 M48.33 108.86 C62.64 92.83, 76.95 76.84, 112.96 35.61 M53.05 107.17 C65.62 92.13, 79.6 78.95, 113.26 40.5 M54.13 108.98 C73.64 84.57, 95.39 60.69, 113.58 40.23 M57.39 109.9 C67.49 94.8, 81.85 81.46, 113.57 43.49 M58.09 109.38 C76.35 88.8, 93.14 69.19, 114.2 44.06 M61.74 110.05 C82.37 89.72, 98.24 69.31, 118.31 49.72 M62.58 110.57 C78.42 91.9, 96.22 73.16, 116.57 47.95 M69.13 109.78 C84.96 89.22, 100.66 72.78, 118.86 51.65 M66.93 110.65 C86.45 90.61, 104.4 70.58, 119.28 52.39 M70.21 113.36 C86.76 95.78, 99.84 83.33, 117.17 61.08 M71.6 112.81 C82.33 98.46, 93.48 85.19, 116.61 60.65 M82.05 107.1 C92.41 97.36, 101.81 83.84, 115.21 66.6 M79.59 108.74 C90 97.31, 100.69 86.24, 116.64 67.63 M90.69 103.71 C100.27 92.86, 109.17 81.84, 115.4 74.68 M89.64 104.36 C96.7 95.55, 102.91 87.99, 114.28 76.25" stroke="#b2f2bb" stroke-width="0.5" fill="none"></path><path d="M32.96 5.78 C40.21 1.55, 51.38 0.36, 60.26 0.58 C69.15 0.8, 78.52 3.07, 86.27 7.12 C94.01 11.16, 101.83 17.76, 106.76 24.86 C111.69 31.97, 114.9 41.27, 115.84 49.74 C116.78 58.2, 115.72 67.53, 112.39 75.66 C109.06 83.79, 103.01 92.76, 95.87 98.51 C88.72 104.26, 78.36 108.54, 69.53 110.14 C60.71 111.74, 51.52 110.31, 42.92 108.1 C34.32 105.9, 24.63 102.49, 17.93 96.91 C11.23 91.33, 5.74 82.97, 2.73 74.61 C-0.28 66.25, -1.49 55.21, -0.14 46.73 C1.2 38.25, 4.73 30.7, 10.82 23.73 C16.91 16.77, 31.76 8.11, 36.4 4.93 C41.04 1.76, 38.37 3.83, 38.68 4.71 M44.81 2.79 C52.9 0.35, 63.89 0.1, 72.52 2.17 C81.16 4.24, 89.94 9.26, 96.63 15.21 C103.33 21.17, 109.68 29.87, 112.69 37.92 C115.7 45.97, 115.83 55.05, 114.69 63.5 C113.55 71.96, 110.86 81.74, 105.86 88.63 C100.86 95.53, 92.77 101.13, 84.7 104.86 C76.62 108.59, 66.24 111.13, 57.41 110.99 C48.59 110.86, 39.58 107.94, 31.76 104.06 C23.95 100.17, 15.81 94.72, 10.53 87.68 C5.25 80.63, 1.14 70.44, 0.1 61.79 C-0.95 53.13, 1.16 43.69, 4.28 35.75 C7.39 27.8, 12.1 20.01, 18.76 14.1 C25.43 8.18, 39.76 2.42, 44.27 0.25 C48.78 -1.92, 45.26 -0.25, 45.82 1.09" stroke="#1e1e1e" stroke-width="1" fill="none"></path></g><g transform="translate(406.89784087086764 532.7555736441466) rotate(0 32.0899658203125 25)"><text x="32.0899658203125" y="0" font-family="Virgil, Segoe UI Emoji" font-size="20px" fill="#1e1e1e" text-anchor="middle" style="white-space: pre;" direction="ltr" dominant-baseline="text-before-edge">Signal</text><text x="32.0899658203125" y="25" font-family="Virgil, Segoe UI Emoji" font-size="20px" fill="#1e1e1e" text-anchor="middle" style="white-space: pre;" direction="ltr" dominant-baseline="text-before-edge">Source</text></g><g mask="url(#mask-f_UhHqbWtUJ4epcF1Elsx)" stroke-linecap="round"><g transform="translate(170.63405897080088 309.77333445692955) rotate(0 112.382529943799 -0.5283189841878055)"><path d="M0.54 -0.53 C38.25 -0.84, 188.08 -0.87, 225.4 -0.98 M-0.63 1.8 C37.08 1.06, 187.6 -2.59, 224.99 -2.86" stroke="#1e1e1e" stroke-width="1" fill="none"></path></g><g transform="translate(170.63405897080088 309.77333445692955) rotate(0 112.382529943799 -0.5283189841878055)"><path d="M196.09 9.6 C204.13 5.4, 210.18 3.21, 226.05 -1.57 M196.83 7.99 C207.07 3.67, 217.97 -1.32, 225.37 -3.1" stroke="#1e1e1e" stroke-width="1" fill="none"></path></g><g transform="translate(170.63405897080088 309.77333445692955) rotate(0 112.382529943799 -0.5283189841878055)"><path d="M195.74 -10.92 C204.01 -10.39, 210.14 -7.86, 226.05 -1.57 M196.48 -12.53 C206.98 -8.78, 218.03 -5.69, 225.37 -3.1" stroke="#1e1e1e" stroke-width="1" fill="none"></path></g></g><mask id="mask-f_UhHqbWtUJ4epcF1Elsx"><rect x="0" y="0" fill="#fff" width="495" height="411.21802845235624"></rect><rect x="231.13708258598638" y="296.55098745921623" fill="#000" width="103.35989379882812" height="25" opacity="1"></rect></mask><g transform="translate(231.13708258598638 296.55098745921623) rotate(0 51.8795063286135 12.69402801352554)"><text x="51.67994689941406" y="0" font-family="Virgil, Segoe UI Emoji" font-size="20px" fill="#1e1e1e" text-anchor="middle" style="white-space: pre;" direction="ltr" dominant-baseline="text-before-edge">Add Stake</text></g><g stroke-linecap="round"><g transform="translate(444 342) rotate(0 -0.9973023694714129 79.17187297195198)"><path d="M-1.04 0.33 C-1.02 26.79, -1.15 131.75, -0.93 158.01" stroke="#1e1e1e" stroke-width="1.5" fill="none" stroke-dasharray="8 9"></path></g></g><mask></mask><g stroke-linecap="round"><g transform="translate(614 338) rotate(0 1.427523089945339 81.06707475036384)"><path d="M-0.04 -1.15 C0.6 26.06, 2.35 136.01, 2.89 163.28" stroke="#1e1e1e" stroke-width="1.5" fill="none" stroke-dasharray="8 9"></path></g></g><mask></mask><g stroke-linecap="round"><g transform="translate(756 339) rotate(0 1.2851127639412425 77.97822820991277)"><path d="M-0.14 -0.46 C0.21 25.53, 2.05 130.34, 2.71 156.41" stroke="#1e1e1e" stroke-width="1.5" fill="none" stroke-dasharray="8 9"></path></g></g><mask></mask><g mask="url(#mask-TVSs-EicDyVqhVZKI5eVu)" stroke-linecap="round"><g transform="translate(397 270) rotate(0 -115.75959600664225 0.4424935399239587)"><path d="M1.27 -0.26 C-91.02 -0.59, -185.92 -1.1, -231.51 0.7 M-0.12 -0.06 C-76.62 1.7, -153.16 1.91, -232.79 0.75" stroke="#1e1e1e" stroke-width="1" fill="none"></path></g><g transform="translate(397 270) rotate(0 -115.75959600664225 0.4424935399239587)"><path d="M-203 -9.55 C-213.99 -5.18, -228.13 -2.27, -232.2 0.4 M-204.64 -9.32 C-214.25 -5.46, -223.86 -2.32, -233.71 0.45" stroke="#1e1e1e" stroke-width="1" fill="none"></path></g><g transform="translate(397 270) rotate(0 -115.75959600664225 0.4424935399239587)"><path d="M-203.2 10.97 C-214.27 7.17, -228.35 1.9, -232.2 0.4 M-204.83 11.2 C-214.23 8.31, -223.77 4.7, -233.71 0.45" stroke="#1e1e1e" stroke-width="1" fill="none"></path></g></g><mask id="mask-TVSs-EicDyVqhVZKI5eVu"><rect x="0" y="0" fill="#fff" width="729" height="371"></rect><rect x="238.01004791259766" y="258" fill="#000" width="85.97990417480469" height="25" opacity="1"></rect></mask><g transform="translate(238.01004791259766 258) rotate(0 43.23035608076009 12.442493539923959)"><text x="42.989952087402344" y="0" font-family="Virgil, Segoe UI Emoji" font-size="20px" fill="#1e1e1e" text-anchor="middle" style="white-space: pre;" direction="ltr" dominant-baseline="text-before-edge">Withdraw</text></g></svg>